<svg xmlns="http://www.w3.org/2000/svg" xmlns:xlink="http://www.w3.org/1999/xlink" width="200" zoomAndPan="magnify" viewBox="0 0 150 56.249996" height="75" preserveAspectRatio="xMidYMid meet" version="1.2"><defs/><g id="3e7a6d2f1e"><g style="fill:#000000;fill-opacity:1;"><g transform="translate(1.47732, 34.929844)"><path style="stroke:none" d="M 0.765625 0 L 0.765625 -17.40625 L 4.359375 -17.40625 L 5.953125 -9.078125 L 5.953125 -17.40625 L 9.328125 -17.40625 L 9.328125 0 L 5.921875 0 L 4.171875 -8.71875 L 4.171875 0 Z M 0.765625 0 "/></g></g><g style="fill:#000000;fill-opacity:1;"><g transform="translate(11.561624, 34.929844)"><path style="stroke:none" d="M 3.40625 0.15625 C 2.257812 0.15625 1.472656 -0.222656 1.046875 -0.984375 C 0.617188 -1.742188 0.40625 -2.832031 0.40625 -4.25 C 0.40625 -5.414062 0.554688 -6.304688 0.859375 -6.921875 C 1.160156 -7.546875 1.582031 -8.003906 2.125 -8.296875 C 2.664062 -8.585938 3.488281 -8.910156 4.59375 -9.265625 L 5.578125 -9.578125 L 5.578125 -11.109375 C 5.578125 -11.492188 5.5 -11.789062 5.34375 -12 C 5.1875 -12.21875 5 -12.328125 4.78125 -12.328125 C 4.59375 -12.328125 4.425781 -12.238281 4.28125 -12.0625 C 4.144531 -11.882812 4.078125 -11.644531 4.078125 -11.34375 L 4.078125 -10.453125 L 0.625 -10.453125 L 0.625 -10.9375 C 0.625 -12.394531 0.960938 -13.4375 1.640625 -14.0625 C 2.328125 -14.6875 3.441406 -15 4.984375 -15 C 6.210938 -15 7.210938 -14.675781 7.984375 -14.03125 C 8.753906 -13.394531 9.140625 -12.488281 9.140625 -11.3125 L 9.140625 0 L 5.609375 0 L 5.609375 -1.765625 C 5.429688 -1.148438 5.148438 -0.675781 4.765625 -0.34375 C 4.378906 -0.0078125 3.925781 0.15625 3.40625 0.15625 Z M 4.796875 -2.59375 C 5.066406 -2.59375 5.257812 -2.703125 5.375 -2.921875 C 5.488281 -3.148438 5.546875 -3.425781 5.546875 -3.75 L 5.546875 -7.890625 C 5.023438 -7.679688 4.640625 -7.421875 4.390625 -7.109375 C 4.140625 -6.796875 4.015625 -6.363281 4.015625 -5.8125 L 4.015625 -3.90625 C 4.015625 -3.03125 4.273438 -2.59375 4.796875 -2.59375 Z M 4.796875 -2.59375 "/></g></g><g style="fill:#000000;fill-opacity:1;"><g transform="translate(21.342189, 34.929844)"><path style="stroke:none" d="M 4.78125 0.15625 C 1.851562 0.15625 0.390625 -1.328125 0.390625 -4.296875 L 0.40625 -5.46875 L 3.953125 -5.46875 L 3.96875 -3.734375 C 3.96875 -3.378906 4.035156 -3.109375 4.171875 -2.921875 C 4.304688 -2.742188 4.53125 -2.65625 4.84375 -2.65625 C 5.3125 -2.65625 5.546875 -3.039062 5.546875 -3.8125 C 5.546875 -4.375 5.4375 -4.816406 5.21875 -5.140625 C 5 -5.472656 4.644531 -5.820312 4.15625 -6.1875 L 2.265625 -7.640625 C 1.617188 -8.140625 1.15625 -8.65625 0.875 -9.1875 C 0.59375 -9.71875 0.453125 -10.472656 0.453125 -11.453125 C 0.453125 -12.203125 0.648438 -12.84375 1.046875 -13.375 C 1.441406 -13.914062 1.96875 -14.320312 2.625 -14.59375 C 3.289062 -14.863281 4.03125 -15 4.84375 -15 C 7.71875 -15 9.15625 -13.566406 9.15625 -10.703125 L 9.15625 -10.421875 L 5.484375 -10.421875 L 5.484375 -10.984375 C 5.484375 -11.335938 5.425781 -11.640625 5.3125 -11.890625 C 5.195312 -12.140625 5.003906 -12.265625 4.734375 -12.265625 C 4.492188 -12.265625 4.3125 -12.191406 4.1875 -12.046875 C 4.0625 -11.898438 4 -11.707031 4 -11.46875 C 4 -10.925781 4.207031 -10.507812 4.625 -10.21875 L 6.8125 -8.609375 C 7.59375 -8.023438 8.191406 -7.390625 8.609375 -6.703125 C 9.023438 -6.023438 9.234375 -5.171875 9.234375 -4.140625 C 9.234375 -2.753906 8.84375 -1.691406 8.0625 -0.953125 C 7.28125 -0.210938 6.1875 0.15625 4.78125 0.15625 Z M 4.78125 0.15625 "/></g></g><g style="fill:#000000;fill-opacity:1;"><g transform="translate(30.960764, 34.929844)"><path style="stroke:none" d=""/></g></g><g style="fill:#000000;fill-opacity:1;"><g transform="translate(35.699176, 34.929844)"><path style="stroke:none" d="M 0.765625 -17.40625 L 5.578125 -17.40625 C 6.816406 -17.40625 7.742188 -17.0625 8.359375 -16.375 C 8.984375 -15.6875 9.304688 -14.664062 9.328125 -13.3125 L 9.359375 -5.171875 C 9.378906 -3.453125 9.082031 -2.160156 8.46875 -1.296875 C 7.863281 -0.429688 6.859375 0 5.453125 0 L 0.765625 0 Z M 4.890625 -3.078125 C 5.523438 -3.078125 5.84375 -3.390625 5.84375 -4.015625 L 5.84375 -12.984375 C 5.84375 -13.378906 5.8125 -13.675781 5.75 -13.875 C 5.6875 -14.070312 5.570312 -14.203125 5.40625 -14.265625 C 5.25 -14.335938 5 -14.375 4.65625 -14.375 L 4.28125 -14.375 L 4.28125 -3.078125 Z M 4.890625 -3.078125 "/></g></g><g style="fill:#000000;fill-opacity:1;"><g transform="translate(45.682238, 34.929844)"><path style="stroke:none" d="M 0.6875 -15.828125 L 0.6875 -18.296875 L 4.234375 -18.296875 L 4.234375 -15.828125 Z M 0.6875 0 L 0.6875 -14.828125 L 4.234375 -14.828125 L 4.234375 0 Z M 0.6875 0 "/></g></g><g style="fill:#000000;fill-opacity:1;"><g transform="translate(50.602895, 34.929844)"><path style="stroke:none" d="M 4.703125 2.171875 C 3.648438 2.171875 2.820312 2.082031 2.21875 1.90625 C 1.613281 1.738281 1.023438 1.421875 0.453125 0.953125 L 1.65625 -1.09375 C 2.519531 -0.582031 3.378906 -0.328125 4.234375 -0.328125 C 4.785156 -0.328125 5.203125 -0.5 5.484375 -0.84375 C 5.773438 -1.195312 5.921875 -1.679688 5.921875 -2.296875 L 5.921875 -3.09375 C 5.628906 -2.082031 4.878906 -1.578125 3.671875 -1.578125 C 2.648438 -1.578125 1.898438 -1.921875 1.421875 -2.609375 C 0.941406 -3.296875 0.703125 -4.21875 0.703125 -5.375 L 0.703125 -10.9375 C 0.703125 -12.25 0.921875 -13.253906 1.359375 -13.953125 C 1.804688 -14.648438 2.578125 -15 3.671875 -15 C 4.304688 -15 4.804688 -14.835938 5.171875 -14.515625 C 5.546875 -14.203125 5.796875 -13.753906 5.921875 -13.171875 L 5.921875 -14.828125 L 9.546875 -14.828125 L 9.546875 -2.515625 C 9.546875 -0.847656 9.160156 0.347656 8.390625 1.078125 C 7.617188 1.804688 6.390625 2.171875 4.703125 2.171875 Z M 5.09375 -4.25 C 5.644531 -4.25 5.921875 -4.75 5.921875 -5.75 L 5.921875 -11.046875 C 5.921875 -11.335938 5.835938 -11.617188 5.671875 -11.890625 C 5.515625 -12.160156 5.3125 -12.296875 5.0625 -12.296875 C 4.75 -12.296875 4.539062 -12.179688 4.4375 -11.953125 C 4.332031 -11.734375 4.28125 -11.429688 4.28125 -11.046875 L 4.28125 -5.75 C 4.28125 -5.3125 4.332031 -4.953125 4.4375 -4.671875 C 4.539062 -4.390625 4.757812 -4.25 5.09375 -4.25 Z M 5.09375 -4.25 "/></g></g><g style="fill:#000000;fill-opacity:1;"><g transform="translate(60.808709, 34.929844)"><path style="stroke:none" d="M 3.765625 0.15625 C 2.835938 0.15625 2.195312 -0.0351562 1.84375 -0.421875 C 1.488281 -0.816406 1.3125 -1.445312 1.3125 -2.3125 L 1.3125 -11.578125 L 0.328125 -11.578125 L 0.328125 -14.265625 L 1.3125 -14.265625 L 1.3125 -17.40625 L 4.765625 -17.40625 L 4.765625 -14.265625 L 5.78125 -14.265625 L 5.78125 -11.578125 L 4.765625 -11.578125 L 4.765625 -3.25 C 4.765625 -2.988281 4.785156 -2.796875 4.828125 -2.671875 C 4.867188 -2.554688 4.972656 -2.5 5.140625 -2.5 C 5.273438 -2.5 5.40625 -2.503906 5.53125 -2.515625 C 5.65625 -2.523438 5.738281 -2.53125 5.78125 -2.53125 L 5.78125 -0.09375 C 5.570312 -0.0390625 5.273438 0.0078125 4.890625 0.0625 C 4.503906 0.125 4.128906 0.15625 3.765625 0.15625 Z M 3.765625 0.15625 "/></g></g><g style="fill:#000000;fill-opacity:1;"><g transform="translate(66.984847, 34.929844)"><path style="stroke:none" d="M 3.40625 0.15625 C 2.257812 0.15625 1.472656 -0.222656 1.046875 -0.984375 C 0.617188 -1.742188 0.40625 -2.832031 0.40625 -4.25 C 0.40625 -5.414062 0.554688 -6.304688 0.859375 -6.921875 C 1.160156 -7.546875 1.582031 -8.003906 2.125 -8.296875 C 2.664062 -8.585938 3.488281 -8.910156 4.59375 -9.265625 L 5.578125 -9.578125 L 5.578125 -11.109375 C 5.578125 -11.492188 5.5 -11.789062 5.34375 -12 C 5.1875 -12.21875 5 -12.328125 4.78125 -12.328125 C 4.59375 -12.328125 4.425781 -12.238281 4.28125 -12.0625 C 4.144531 -11.882812 4.078125 -11.644531 4.078125 -11.34375 L 4.078125 -10.453125 L 0.625 -10.453125 L 0.625 -10.9375 C 0.625 -12.394531 0.960938 -13.4375 1.640625 -14.0625 C 2.328125 -14.6875 3.441406 -15 4.984375 -15 C 6.210938 -15 7.210938 -14.675781 7.984375 -14.03125 C 8.753906 -13.394531 9.140625 -12.488281 9.140625 -11.3125 L 9.140625 0 L 5.609375 0 L 5.609375 -1.765625 C 5.429688 -1.148438 5.148438 -0.675781 4.765625 -0.34375 C 4.378906 -0.0078125 3.925781 0.15625 3.40625 0.15625 Z M 4.796875 -2.59375 C 5.066406 -2.59375 5.257812 -2.703125 5.375 -2.921875 C 5.488281 -3.148438 5.546875 -3.425781 5.546875 -3.75 L 5.546875 -7.890625 C 5.023438 -7.679688 4.640625 -7.421875 4.390625 -7.109375 C 4.140625 -6.796875 4.015625 -6.363281 4.015625 -5.8125 L 4.015625 -3.90625 C 4.015625 -3.03125 4.273438 -2.59375 4.796875 -2.59375 Z M 4.796875 -2.59375 "/></g></g><g style="fill:#000000;fill-opacity:1;"><g transform="translate(76.765412, 34.929844)"><path style="stroke:none" d="M 0.703125 0 L 0.703125 -17.515625 L 4.3125 -17.515625 L 4.3125 0 Z M 0.703125 0 "/></g></g><g style="fill:#000000;fill-opacity:1;"><g transform="translate(81.787324, 34.929844)"><path style="stroke:none" d=""/></g></g><g style="fill:#000000;fill-opacity:1;"><g transform="translate(86.525736, 34.929844)"><path style="stroke:none" d="M 4.359375 0.15625 C 3.097656 0.15625 2.160156 -0.285156 1.546875 -1.171875 C 0.929688 -2.054688 0.625 -3.394531 0.625 -5.1875 L 0.625 -12.6875 C 0.625 -14.289062 0.984375 -15.503906 1.703125 -16.328125 C 2.421875 -17.148438 3.488281 -17.5625 4.90625 -17.5625 C 6.050781 -17.5625 6.941406 -17.332031 7.578125 -16.875 C 8.210938 -16.414062 8.648438 -15.75 8.890625 -14.875 C 9.140625 -14 9.265625 -12.867188 9.265625 -11.484375 L 5.859375 -11.484375 L 5.859375 -13.046875 C 5.859375 -13.460938 5.800781 -13.785156 5.6875 -14.015625 C 5.570312 -14.253906 5.363281 -14.375 5.0625 -14.375 C 4.40625 -14.375 4.078125 -13.941406 4.078125 -13.078125 L 4.078125 -4.640625 C 4.078125 -4.109375 4.144531 -3.707031 4.28125 -3.4375 C 4.414062 -3.175781 4.648438 -3.046875 4.984375 -3.046875 C 5.316406 -3.046875 5.550781 -3.175781 5.6875 -3.4375 C 5.820312 -3.707031 5.890625 -4.109375 5.890625 -4.640625 L 5.890625 -7.140625 L 4.96875 -7.140625 L 4.96875 -10.125 L 9.21875 -10.125 L 9.21875 0 L 7.828125 0 L 7.234375 -1.453125 C 6.609375 -0.378906 5.648438 0.15625 4.359375 0.15625 Z M 4.359375 0.15625 "/></g></g><g style="fill:#000000;fill-opacity:1;"><g transform="translate(96.346795, 34.929844)"><path style="stroke:none" d="M 0.703125 -14.828125 L 4.25 -14.828125 L 4.25 -13.1875 C 4.425781 -13.769531 4.734375 -14.21875 5.171875 -14.53125 C 5.617188 -14.851562 6.164062 -15.015625 6.8125 -15.015625 L 6.8125 -12.0625 C 6.3125 -12.0625 5.757812 -11.988281 5.15625 -11.84375 C 4.550781 -11.695312 4.25 -11.53125 4.25 -11.34375 L 4.25 0 L 0.703125 0 Z M 0.703125 -14.828125 "/></g></g><g style="fill:#000000;fill-opacity:1;"><g transform="translate(103.31267, 34.929844)"><path style="stroke:none" d="M 5.03125 0.15625 C 2.070312 0.15625 0.59375 -1.375 0.59375 -4.4375 L 0.59375 -10.390625 C 0.59375 -11.796875 0.984375 -12.914062 1.765625 -13.75 C 2.554688 -14.582031 3.644531 -15 5.03125 -15 C 6.40625 -15 7.488281 -14.582031 8.28125 -13.75 C 9.070312 -12.914062 9.46875 -11.796875 9.46875 -10.390625 L 9.46875 -4.4375 C 9.46875 -1.375 7.988281 0.15625 5.03125 0.15625 Z M 5.03125 -2.578125 C 5.3125 -2.578125 5.519531 -2.675781 5.65625 -2.875 C 5.789062 -3.082031 5.859375 -3.359375 5.859375 -3.703125 L 5.859375 -10.96875 C 5.859375 -11.832031 5.582031 -12.265625 5.03125 -12.265625 C 4.46875 -12.265625 4.1875 -11.832031 4.1875 -10.96875 L 4.1875 -3.703125 C 4.1875 -3.359375 4.253906 -3.082031 4.390625 -2.875 C 4.523438 -2.675781 4.738281 -2.578125 5.03125 -2.578125 Z M 5.03125 -2.578125 "/></g></g><g style="fill:#000000;fill-opacity:1;"><g transform="translate(113.376735, 34.929844)"><path style="stroke:none" d="M 2.265625 0 L 0.46875 -14.828125 L 3.5 -14.828125 L 4.5 -6.875 L 5.34375 -14.828125 L 8.453125 -14.828125 L 9.46875 -6.875 L 10.296875 -14.828125 L 13.640625 -14.828125 L 11.734375 0 L 8.1875 0 L 7.140625 -8.4375 L 6.203125 0 Z M 2.265625 0 "/></g></g><g style="fill:#000000;fill-opacity:1;"><g transform="translate(127.470476, 34.929844)"><path style="stroke:none" d="M 3.765625 0.15625 C 2.835938 0.15625 2.195312 -0.0351562 1.84375 -0.421875 C 1.488281 -0.816406 1.3125 -1.445312 1.3125 -2.3125 L 1.3125 -11.578125 L 0.328125 -11.578125 L 0.328125 -14.265625 L 1.3125 -14.265625 L 1.3125 -17.40625 L 4.765625 -17.40625 L 4.765625 -14.265625 L 5.78125 -14.265625 L 5.78125 -11.578125 L 4.765625 -11.578125 L 4.765625 -3.25 C 4.765625 -2.988281 4.785156 -2.796875 4.828125 -2.671875 C 4.867188 -2.554688 4.972656 -2.5 5.140625 -2.5 C 5.273438 -2.5 5.40625 -2.503906 5.53125 -2.515625 C 5.65625 -2.523438 5.738281 -2.53125 5.78125 -2.53125 L 5.78125 -0.09375 C 5.570312 -0.0390625 5.273438 0.0078125 4.890625 0.0625 C 4.503906 0.125 4.128906 0.15625 3.765625 0.15625 Z M 3.765625 0.15625 "/></g></g><g style="fill:#000000;fill-opacity:1;"><g transform="translate(133.646614, 34.929844)"><path style="stroke:none" d="M 0.703125 -17.515625 L 4.359375 -17.515625 L 4.359375 -13.375 C 4.734375 -14.457031 5.457031 -15 6.53125 -15 C 7.53125 -15 8.285156 -14.679688 8.796875 -14.046875 C 9.304688 -13.410156 9.5625 -12.539062 9.5625 -11.4375 L 9.5625 0 L 6.015625 0 L 6.015625 -11.203125 C 6.015625 -11.523438 5.941406 -11.785156 5.796875 -11.984375 C 5.648438 -12.191406 5.429688 -12.296875 5.140625 -12.296875 C 4.898438 -12.296875 4.707031 -12.191406 4.5625 -11.984375 C 4.425781 -11.773438 4.359375 -11.523438 4.359375 -11.234375 L 4.359375 0 L 0.703125 0 Z M 0.703125 -17.515625 "/></g></g><g style="fill:#000000;fill-opacity:1;"><g transform="translate(143.872668, 34.929844)"><path style="stroke:none" d="M 0.546875 0 L 0.546875 -2.953125 L 4.09375 -2.953125 L 4.09375 0 Z M 0.546875 0 "/></g></g></g></svg>